<svg xmlns="http://www.w3.org/2000/svg" xmlns:xlink="http://www.w3.org/1999/xlink" width="2000" zoomAndPan="magnify" viewBox="0 0 1500 1499.999933" height="2000" preserveAspectRatio="xMidYMid meet" version="1.0"><defs><clipPath id="8c0fda67b3"><path d="M 170 576 L 960 576 L 960 1331.027344 L 170 1331.027344 Z M 170 576 " clip-rule="nonzero"/></clipPath><clipPath id="5ffe8cafb5"><path d="M 532 169.277344 L 1331 169.277344 L 1331 822 L 532 822 Z M 532 169.277344 " clip-rule="nonzero"/></clipPath></defs><g clip-path="url(#8c0fda67b3)"><path fill="#7bc1b7" d="M 914.34375 1061.683594 C 897.617188 1044.957031 882.121094 1027 868.101562 1008.0625 L 868.101562 1118.75 C 868.101562 1122.6875 868.101562 1126.621094 867.855469 1130.3125 C 867.609375 1134 867.117188 1137.9375 866.378906 1141.871094 C 865.640625 1145.808594 864.902344 1149.496094 863.671875 1153.1875 C 862.6875 1156.878906 861.457031 1160.566406 859.984375 1164.257812 C 858.507812 1167.945312 857.03125 1171.390625 855.0625 1174.832031 C 853.339844 1178.277344 851.375 1181.722656 849.160156 1184.917969 C 846.945312 1188.117188 844.730469 1191.3125 842.273438 1194.265625 C 839.8125 1197.21875 837.351562 1200.167969 834.402344 1202.875 C 831.695312 1205.582031 828.742188 1208.285156 825.792969 1210.746094 C 822.839844 1213.207031 819.640625 1215.664062 816.445312 1217.878906 C 813.246094 1220.09375 809.804688 1222.0625 806.359375 1224.027344 C 802.917969 1225.996094 799.472656 1227.472656 795.78125 1229.195312 C 792.09375 1230.671875 788.648438 1232.144531 784.714844 1233.128906 C 781.023438 1234.359375 777.335938 1235.34375 773.398438 1236.082031 C 769.464844 1236.820312 765.773438 1237.3125 761.835938 1237.804688 C 757.902344 1238.296875 753.964844 1238.296875 750.277344 1238.296875 C 746.339844 1238.296875 742.40625 1238.050781 738.714844 1237.804688 C 734.78125 1237.3125 731.089844 1236.820312 727.15625 1236.082031 C 723.21875 1235.34375 719.53125 1234.359375 715.839844 1233.128906 C 712.152344 1231.898438 708.460938 1230.671875 704.769531 1229.195312 C 701.082031 1227.71875 697.636719 1225.996094 694.195312 1224.027344 C 690.75 1222.0625 687.554688 1220.09375 684.109375 1217.878906 C 680.910156 1215.664062 677.714844 1213.453125 674.761719 1210.746094 C 671.808594 1208.285156 668.859375 1205.582031 666.152344 1202.875 C 663.445312 1200.167969 660.742188 1197.21875 658.28125 1194.265625 C 655.820312 1191.3125 653.609375 1188.117188 651.394531 1184.917969 C 649.179688 1181.722656 647.210938 1178.277344 645.492188 1174.832031 C 643.769531 1171.390625 642.046875 1167.945312 640.570312 1164.257812 C 639.09375 1160.566406 637.867188 1156.878906 636.882812 1153.1875 C 635.898438 1149.496094 634.914062 1145.5625 634.175781 1141.871094 C 633.4375 1137.9375 632.945312 1134.246094 632.699219 1130.3125 C 632.453125 1126.375 632.207031 1122.441406 632.453125 1118.75 L 632.453125 864.164062 L 378.605469 864.164062 C 372.457031 864.164062 366.308594 863.671875 360.15625 862.6875 C 354.007812 861.703125 348.105469 860.230469 342.199219 858.261719 C 336.296875 856.292969 330.640625 854.078125 325.226562 851.128906 C 319.816406 848.421875 314.40625 844.976562 309.484375 841.535156 C 304.566406 837.84375 299.894531 833.910156 295.464844 829.480469 C 291.039062 825.054688 287.101562 820.378906 283.414062 815.460938 C 279.722656 810.542969 276.523438 805.128906 273.820312 799.71875 C 271.113281 794.308594 268.652344 788.402344 266.6875 782.746094 C 264.71875 776.84375 263.488281 770.9375 262.503906 764.789062 C 261.519531 758.640625 261.027344 752.492188 261.027344 746.339844 C 261.027344 740.191406 261.519531 734.042969 262.503906 727.894531 C 263.488281 721.742188 264.964844 715.839844 266.933594 709.9375 C 268.898438 704.035156 271.359375 698.375 274.066406 692.964844 C 276.769531 687.554688 280.214844 682.140625 283.660156 677.222656 C 287.347656 672.300781 291.285156 667.628906 295.710938 663.199219 C 300.140625 658.773438 304.8125 654.835938 309.730469 651.394531 L 318.585938 645 C 307.027344 635.40625 296.449219 625.074219 286.609375 613.757812 C 276.03125 601.953125 266.441406 589.40625 257.339844 576.371094 L 252.910156 579.570312 C 248.484375 582.765625 244.300781 586.210938 240.367188 589.898438 C 236.183594 593.589844 232.25 597.277344 228.558594 601.214844 C 224.871094 605.152344 221.179688 609.085938 217.738281 613.269531 C 214.292969 617.449219 210.847656 621.632812 207.898438 626.304688 C 204.699219 630.730469 201.746094 635.40625 199.042969 640.078125 C 196.335938 644.753906 193.628906 649.425781 191.171875 654.347656 C 188.710938 659.265625 186.496094 664.183594 184.53125 669.105469 C 182.5625 674.023438 180.59375 679.191406 179.117188 684.355469 C 177.394531 689.519531 176.167969 694.6875 174.9375 700.097656 C 173.707031 705.507812 172.722656 710.675781 171.984375 716.085938 C 171.246094 721.496094 170.507812 726.910156 170.261719 732.320312 C 170.015625 737.976562 170.015625 743.390625 170.015625 748.800781 C 170.015625 754.210938 170.261719 759.625 170.753906 765.035156 C 171.246094 770.445312 171.984375 775.859375 172.722656 781.269531 C 173.707031 786.679688 174.691406 791.847656 175.921875 797.257812 C 177.148438 802.425781 178.871094 807.835938 180.347656 813 C 182.070312 818.167969 184.039062 823.332031 186.003906 828.25 C 188.21875 833.171875 190.433594 838.089844 192.894531 843.011719 C 195.351562 847.929688 198.058594 852.601562 201.011719 857.277344 C 203.960938 861.949219 206.914062 866.378906 210.109375 870.804688 C 213.308594 875.234375 216.753906 879.414062 220.195312 883.597656 C 223.640625 887.777344 227.574219 891.714844 231.265625 895.402344 C 235.199219 899.339844 239.136719 902.78125 243.316406 906.472656 C 247.5 909.917969 251.679688 913.359375 256.109375 916.558594 C 260.535156 919.753906 264.964844 922.707031 269.636719 925.660156 C 274.3125 928.609375 278.984375 931.070312 283.90625 933.53125 C 288.824219 935.988281 293.742188 938.203125 298.664062 940.417969 C 303.582031 942.386719 308.746094 944.351562 313.914062 946.074219 C 319.078125 947.796875 324.246094 949.273438 329.65625 950.503906 C 334.820312 951.730469 340.234375 952.714844 345.644531 953.699219 C 351.054688 954.4375 356.46875 955.175781 361.878906 955.667969 C 367.289062 956.160156 372.703125 956.40625 378.113281 956.40625 L 541.195312 956.40625 L 541.195312 1119.242188 C 541.195312 1122.6875 541.195312 1126.128906 541.195312 1129.574219 C 541.195312 1133.015625 541.441406 1136.460938 541.6875 1139.90625 C 541.933594 1143.347656 542.425781 1146.792969 542.917969 1150.234375 C 543.410156 1153.679688 543.902344 1157.121094 544.640625 1160.566406 C 545.378906 1164.011719 545.871094 1167.453125 546.855469 1170.652344 C 547.589844 1174.09375 548.574219 1177.292969 549.558594 1180.738281 C 550.542969 1183.933594 551.527344 1187.378906 552.757812 1190.574219 C 553.988281 1193.773438 554.972656 1196.972656 556.445312 1200.167969 C 557.675781 1203.367188 559.152344 1206.566406 560.628906 1209.761719 C 562.105469 1212.960938 563.582031 1215.910156 565.054688 1219.109375 C 566.777344 1222.0625 568.253906 1225.257812 569.976562 1228.210938 C 571.699219 1231.164062 573.417969 1234.113281 575.386719 1237.066406 C 577.355469 1240.015625 579.324219 1242.722656 581.289062 1245.675781 C 583.257812 1248.378906 585.472656 1251.085938 587.6875 1253.792969 C 589.898438 1256.496094 592.113281 1259.203125 594.328125 1261.664062 C 596.542969 1264.125 599 1266.828125 601.460938 1269.289062 C 603.921875 1271.75 606.378906 1274.207031 608.839844 1276.421875 C 611.300781 1278.636719 614.003906 1281.09375 616.710938 1283.308594 C 619.417969 1285.523438 622.121094 1287.738281 624.828125 1289.703125 C 627.535156 1291.671875 630.484375 1293.886719 633.191406 1295.609375 C 636.144531 1297.574219 638.847656 1299.296875 641.800781 1301.265625 C 644.753906 1302.988281 647.703125 1304.710938 650.902344 1306.429688 C 653.855469 1308.152344 657.050781 1309.628906 660.25 1311.105469 C 663.445312 1312.582031 666.398438 1314.054688 669.597656 1315.285156 C 672.792969 1316.515625 675.992188 1317.992188 679.191406 1318.976562 C 682.386719 1320.207031 685.832031 1321.191406 689.027344 1322.171875 C 692.226562 1323.15625 695.671875 1324.140625 699.113281 1324.878906 C 702.558594 1325.617188 705.753906 1326.601562 709.199219 1327.09375 C 712.640625 1327.585938 716.085938 1328.324219 719.285156 1328.816406 C 722.726562 1329.308594 726.171875 1329.800781 729.613281 1330.046875 C 733.058594 1330.289062 736.503906 1330.535156 739.945312 1330.78125 C 743.390625 1331.027344 746.832031 1331.027344 750.277344 1331.027344 C 753.71875 1331.027344 757.164062 1331.027344 760.609375 1330.78125 C 764.050781 1330.535156 767.496094 1330.289062 770.9375 1330.046875 C 774.382812 1329.800781 777.828125 1329.308594 781.269531 1328.816406 C 784.714844 1328.324219 788.15625 1327.832031 791.355469 1327.09375 C 794.554688 1326.355469 797.996094 1325.617188 801.441406 1324.878906 C 804.882812 1324.140625 808.082031 1323.15625 811.523438 1322.171875 C 814.722656 1321.191406 818.167969 1319.960938 821.363281 1318.976562 C 824.5625 1317.746094 827.757812 1316.515625 830.957031 1315.285156 C 834.15625 1314.054688 837.351562 1312.582031 840.304688 1311.105469 C 843.503906 1309.628906 846.453125 1308.152344 849.652344 1306.429688 C 852.601562 1304.710938 855.800781 1302.988281 858.753906 1301.265625 C 861.703125 1299.542969 864.65625 1297.574219 867.363281 1295.609375 C 870.3125 1293.640625 873.019531 1291.671875 875.726562 1289.703125 C 878.429688 1287.738281 881.136719 1285.523438 883.84375 1283.308594 C 886.546875 1281.09375 889.007812 1278.882812 891.714844 1276.421875 C 894.171875 1274.207031 896.632812 1271.75 899.09375 1269.289062 C 901.554688 1266.828125 903.765625 1264.367188 906.226562 1261.664062 C 908.441406 1259.203125 910.652344 1256.496094 912.867188 1253.792969 C 915.082031 1251.085938 917.050781 1248.378906 919.261719 1245.675781 C 921.230469 1242.96875 923.199219 1240.015625 925.167969 1237.066406 C 927.132812 1234.113281 928.855469 1231.164062 930.578125 1228.210938 C 932.300781 1225.257812 934.023438 1222.308594 935.496094 1219.109375 C 936.972656 1216.15625 938.695312 1212.960938 939.925781 1209.761719 C 941.402344 1206.566406 942.632812 1203.367188 944.105469 1200.167969 C 945.335938 1196.972656 946.566406 1193.773438 947.796875 1190.574219 C 949.027344 1187.378906 950.011719 1183.933594 950.996094 1180.738281 C 951.976562 1177.539062 952.960938 1174.09375 953.699219 1170.652344 C 954.4375 1167.207031 955.175781 1164.011719 955.914062 1160.566406 C 956.652344 1157.125 957.144531 1153.679688 957.636719 1150.234375 C 958.128906 1146.792969 958.375 1143.347656 958.867188 1139.90625 C 959.113281 1136.460938 959.359375 1133.015625 959.359375 1129.574219 C 959.359375 1126.128906 959.601562 1122.6875 959.359375 1119.242188 L 959.359375 1100.546875 C 943.367188 1088.25 928.117188 1075.703125 914.34375 1061.683594 Z M 914.34375 1061.683594 " fill-opacity="1" fill-rule="nonzero"/></g><g clip-path="url(#5ffe8cafb5)"><path fill="#0b8fac" d="M 561.367188 578.09375 C 554.480469 594.328125 544.886719 608.839844 532.585938 621.386719 L 535.539062 628.273438 L 535.539062 629.011719 L 632.945312 629.011719 L 632.945312 374.914062 C 632.945312 371.226562 633.191406 367.289062 633.683594 363.601562 C 634.175781 359.910156 634.667969 355.976562 635.652344 352.285156 C 636.390625 348.597656 637.375 344.90625 638.601562 341.21875 C 639.832031 337.527344 641.0625 334.082031 642.539062 330.640625 C 644.015625 327.195312 645.738281 323.753906 647.457031 320.308594 C 649.179688 316.863281 651.394531 313.667969 653.363281 310.714844 C 655.574219 307.519531 657.789062 304.566406 660.25 301.613281 C 662.710938 298.664062 665.167969 295.957031 667.875 293.25 C 670.582031 290.546875 673.53125 288.085938 676.484375 285.625 C 679.4375 283.167969 682.386719 280.953125 685.585938 278.984375 C 688.78125 277.015625 691.980469 275.050781 695.425781 273.328125 C 698.867188 271.605469 702.3125 269.882812 705.753906 268.40625 C 709.199219 266.933594 712.886719 265.703125 716.578125 264.71875 C 720.269531 263.734375 723.957031 262.75 727.648438 262.011719 C 731.335938 261.273438 735.027344 260.78125 738.960938 260.289062 C 742.652344 259.796875 746.585938 259.796875 750.277344 259.796875 C 753.964844 259.796875 757.902344 260.042969 761.59375 260.289062 C 765.28125 260.535156 769.21875 261.273438 772.90625 262.011719 C 776.597656 262.75 780.285156 263.734375 783.976562 264.71875 C 787.664062 265.703125 791.109375 267.179688 794.800781 268.40625 C 798.242188 269.882812 801.6875 271.359375 805.128906 273.328125 C 808.574219 275.050781 811.769531 277.015625 814.96875 278.984375 C 818.167969 280.953125 821.117188 283.414062 824.070312 285.625 C 827.023438 288.085938 829.972656 290.546875 832.679688 293.25 C 835.386719 295.957031 838.089844 298.664062 840.304688 301.613281 C 842.765625 304.566406 844.976562 307.519531 847.191406 310.714844 C 849.40625 313.914062 851.375 317.109375 853.09375 320.308594 C 854.816406 323.507812 856.539062 326.949219 858.015625 330.640625 C 859.492188 334.082031 860.964844 337.773438 861.949219 341.21875 C 863.179688 344.90625 864.164062 348.597656 864.902344 352.285156 C 865.640625 355.976562 866.378906 359.664062 866.871094 363.601562 C 867.363281 367.289062 867.609375 371.226562 867.609375 374.914062 L 867.609375 629.257812 L 911.390625 629.257812 C 918.523438 625.8125 926.152344 623.105469 933.777344 621.386719 C 941.648438 619.664062 949.519531 618.679688 957.390625 618.679688 C 965.261719 618.679688 973.132812 619.664062 981.003906 621.386719 C 988.875 623.105469 996.253906 625.8125 1003.386719 629.257812 L 1121.703125 629.257812 C 1125.636719 629.257812 1129.328125 629.503906 1133.261719 629.75 C 1137.199219 630.238281 1140.890625 630.730469 1144.578125 631.46875 C 1148.269531 632.207031 1151.957031 633.191406 1155.648438 634.175781 C 1159.335938 635.40625 1163.027344 636.636719 1166.46875 638.113281 C 1169.914062 639.585938 1173.605469 641.308594 1176.800781 643.03125 C 1180.246094 644.753906 1183.441406 646.71875 1186.640625 648.933594 C 1189.839844 651.148438 1193.035156 653.363281 1195.988281 655.820312 C 1198.9375 658.28125 1201.890625 660.742188 1204.597656 663.445312 C 1207.300781 666.152344 1210.007812 669.105469 1212.222656 672.054688 C 1214.683594 675.007812 1216.894531 678.207031 1219.109375 681.402344 C 1221.324219 684.601562 1223.292969 687.796875 1225.011719 691.242188 C 1226.734375 694.6875 1228.457031 698.128906 1229.933594 701.574219 C 1231.410156 705.015625 1232.636719 708.707031 1233.867188 712.394531 C 1235.097656 716.085938 1235.835938 719.777344 1236.574219 723.464844 C 1237.3125 727.15625 1237.804688 731.089844 1238.296875 734.78125 C 1238.789062 738.714844 1238.789062 742.40625 1238.789062 746.339844 C 1238.789062 753.472656 1238.050781 760.609375 1236.820312 767.496094 C 1270.027344 774.136719 1297.820312 787.171875 1314.058594 816.199219 C 1315.039062 817.675781 1315.53125 819.394531 1316.515625 821.117188 L 1319.714844 811.769531 C 1320.945312 807.835938 1322.175781 803.898438 1323.15625 799.964844 C 1324.140625 796.027344 1325.125 792.09375 1325.863281 787.910156 C 1326.601562 783.976562 1327.339844 779.792969 1328.078125 775.859375 C 1328.816406 771.921875 1329.0625 767.742188 1329.554688 763.558594 C 1329.800781 759.378906 1330.046875 755.441406 1330.292969 751.261719 C 1330.292969 747.078125 1330.292969 743.144531 1330.292969 738.960938 C 1330.046875 734.78125 1329.800781 730.84375 1329.554688 726.664062 C 1329.308594 722.480469 1328.570312 718.546875 1328.078125 714.363281 C 1327.339844 710.183594 1326.601562 706.246094 1325.863281 702.3125 C 1324.878906 698.375 1323.894531 694.195312 1322.910156 690.257812 C 1321.929688 686.324219 1320.699219 682.386719 1319.222656 678.453125 C 1317.992188 674.515625 1316.515625 670.828125 1314.792969 666.890625 C 1313.320312 663.199219 1311.597656 659.265625 1309.875 655.574219 C 1308.152344 651.886719 1306.183594 648.195312 1304.21875 644.753906 C 1302.25 641.308594 1300.035156 637.621094 1297.820312 634.175781 C 1295.609375 630.730469 1293.394531 627.289062 1290.933594 624.089844 C 1288.476562 620.648438 1286.015625 617.449219 1283.308594 614.25 C 1280.605469 611.054688 1277.898438 607.855469 1275.191406 604.90625 C 1272.488281 601.953125 1269.535156 599 1266.582031 596.050781 C 1263.632812 593.097656 1260.679688 590.390625 1257.480469 587.6875 C 1254.285156 584.980469 1251.085938 582.519531 1247.890625 580.0625 C 1244.691406 577.601562 1241.246094 575.140625 1237.804688 572.925781 C 1234.359375 570.714844 1230.917969 568.5 1227.472656 566.285156 C 1224.027344 564.316406 1220.339844 562.105469 1216.648438 560.382812 C 1212.960938 558.414062 1209.269531 556.691406 1205.582031 554.972656 C 1201.890625 553.25 1197.957031 551.773438 1194.019531 550.296875 C 1190.085938 548.820312 1186.394531 547.59375 1182.457031 546.363281 C 1178.523438 545.132812 1174.585938 544.148438 1170.652344 543.164062 C 1166.714844 542.179688 1162.535156 541.441406 1158.597656 540.703125 C 1154.664062 539.964844 1150.480469 539.476562 1146.300781 538.984375 C 1142.117188 538.492188 1138.183594 538.246094 1134 538 C 1129.820312 537.753906 1125.882812 537.507812 1121.703125 537.753906 L 958.867188 537.753906 L 958.867188 374.914062 C 958.867188 368.027344 958.375 361.386719 957.636719 354.746094 C 956.898438 348.105469 955.667969 341.464844 954.4375 334.820312 C 952.960938 328.179688 951.242188 321.785156 949.273438 315.144531 C 947.304688 308.746094 944.84375 302.351562 942.140625 296.203125 C 939.433594 290.054688 936.480469 283.902344 933.285156 278 C 930.085938 272.097656 926.398438 266.195312 922.707031 260.78125 C 918.769531 255.125 914.835938 249.714844 910.410156 244.546875 C 905.980469 239.382812 901.554688 234.460938 896.632812 229.542969 C 891.714844 224.871094 886.792969 220.195312 881.382812 216.015625 C 876.21875 211.832031 870.558594 207.652344 864.902344 203.960938 C 859.246094 200.273438 853.339844 196.828125 847.4375 193.628906 C 841.535156 190.433594 835.386719 187.726562 828.988281 185.023438 C 822.839844 182.5625 816.445312 180.101562 809.804688 178.378906 C 803.40625 176.414062 796.765625 174.691406 790.125 173.460938 C 783.484375 172.230469 776.84375 171.246094 769.957031 170.507812 C 764.050781 169.523438 757.410156 169.277344 750.523438 169.277344 C 743.636719 169.277344 736.996094 169.523438 730.351562 170.261719 C 723.710938 171 716.824219 171.984375 710.183594 173.214844 C 703.542969 174.445312 696.898438 176.167969 690.503906 178.132812 C 684.109375 180.101562 677.714844 182.316406 671.316406 184.777344 C 665.167969 187.234375 659.019531 190.1875 652.871094 193.382812 C 646.964844 196.582031 641.0625 200.027344 635.40625 203.714844 C 629.75 207.40625 624.335938 211.339844 618.925781 215.769531 C 613.757812 219.949219 608.59375 224.625 603.675781 229.296875 C 598.753906 233.972656 594.328125 239.136719 589.898438 244.300781 C 585.472656 249.46875 581.535156 254.878906 577.601562 260.535156 C 573.664062 266.195312 570.222656 271.851562 567.023438 277.753906 C 563.828125 283.660156 560.875 289.808594 558.167969 295.957031 C 555.464844 302.105469 553.25 308.503906 551.035156 314.898438 C 549.066406 321.292969 547.347656 327.933594 545.871094 334.574219 C 544.394531 341.21875 543.410156 347.859375 542.671875 354.5 C 541.933594 361.140625 541.441406 368.027344 541.441406 374.667969 L 541.441406 378.605469 C 566.285156 438.625 580.308594 532.339844 561.367188 578.09375 Z M 561.367188 578.09375 " fill-opacity="1" fill-rule="nonzero"/></g><path fill="#7bc1b7" d="M 236.183594 471.09375 C 240.121094 501.101562 270.867188 554.972656 307.273438 596.050781 C 322.277344 613.023438 344.660156 634.667969 365.816406 642.539062 C 375.40625 645.738281 385 647.949219 395.085938 648.933594 C 405.171875 649.917969 415.011719 649.671875 425.09375 648.195312 L 435.671875 672.300781 C 436.410156 674.023438 437.394531 675.746094 438.625 677.222656 C 439.855469 678.699219 441.082031 680.171875 442.804688 681.402344 C 444.28125 682.632812 446.003906 683.617188 447.726562 684.355469 C 449.445312 685.09375 451.414062 685.585938 453.382812 686.078125 L 454.367188 689.519531 L 465.433594 684.601562 C 466.417969 687.796875 467.648438 690.503906 468.878906 693.210938 C 476.257812 709.9375 486.097656 725.433594 498.148438 738.960938 C 508.726562 750.523438 520.535156 760.855469 533.570312 769.464844 C 546.609375 778.070312 560.628906 784.960938 575.632812 790.125 C 618.679688 805.621094 654.835938 800.457031 686.816406 795.78125 C 741.421875 787.910156 777.582031 782.746094 827.269531 887.53125 C 855.800781 948.042969 893.679688 1002.894531 933.53125 1042.496094 C 981.003906 1089.480469 1031.183594 1114.570312 1079.148438 1115.796875 C 1150.234375 1117.273438 1212.46875 1068.324219 1264.613281 970.425781 C 1300.035156 903.765625 1308.644531 859 1292.164062 829.726562 C 1271.75 793.324219 1221.324219 790.617188 1162.78125 787.171875 C 1118.257812 784.714844 1067.832031 781.761719 1027.984375 763.066406 C 1028.722656 761.589844 1029.460938 760.117188 1030.199219 758.886719 C 1030.9375 757.410156 1031.429688 755.933594 1032.167969 754.457031 C 1032.660156 752.984375 1033.398438 751.507812 1033.886719 750.03125 C 1034.378906 748.554688 1034.871094 747.078125 1035.363281 745.355469 C 1035.855469 743.882812 1036.101562 742.160156 1036.59375 740.683594 C 1036.839844 739.207031 1037.085938 737.484375 1037.332031 736.011719 C 1037.578125 734.289062 1037.824219 732.8125 1037.824219 731.089844 C 1038.070312 729.367188 1038.070312 727.894531 1038.070312 726.171875 C 1038.070312 724.449219 1038.070312 722.972656 1038.070312 721.25 C 1038.070312 719.53125 1037.824219 718.054688 1037.824219 716.332031 C 1037.578125 714.609375 1037.332031 713.132812 1037.085938 711.660156 C 1036.839844 710.183594 1036.59375 708.460938 1036.101562 706.984375 C 1035.855469 705.507812 1035.363281 703.789062 1034.871094 702.3125 C 1034.378906 700.835938 1033.886719 699.359375 1033.398438 697.636719 C 1032.90625 696.160156 1032.167969 694.6875 1031.675781 693.210938 C 1030.9375 691.734375 1030.445312 690.257812 1029.707031 688.78125 C 1028.96875 687.308594 1028.230469 685.832031 1027.492188 684.601562 C 1026.753906 683.125 1025.769531 681.894531 1025.035156 680.417969 C 1024.050781 679.1875 1023.3125 677.714844 1022.328125 676.484375 C 1021.34375 675.253906 1020.359375 674.023438 1019.375 672.792969 C 1018.390625 671.5625 1017.164062 670.335938 1016.179688 669.351562 C 1014.949219 668.121094 1013.964844 667.136719 1012.734375 665.90625 C 1011.503906 664.921875 1010.273438 663.691406 1009.046875 662.710938 C 1007.816406 661.726562 1006.585938 660.742188 1005.109375 659.757812 C 1003.878906 658.773438 1002.402344 658.035156 1001.171875 657.050781 C 999.699219 656.3125 998.46875 655.328125 996.992188 654.589844 C 995.515625 653.855469 994.039062 653.117188 992.5625 652.378906 C 991.089844 651.640625 989.613281 651.148438 988.136719 650.410156 C 986.660156 649.917969 985.183594 649.179688 983.710938 648.6875 C 982.234375 648.195312 980.511719 647.703125 979.035156 647.457031 C 977.558594 646.964844 975.839844 646.71875 974.363281 646.472656 C 972.886719 646.230469 971.164062 645.984375 969.6875 645.738281 C 968.210938 645.492188 966.492188 645.246094 964.769531 645.246094 C 963.046875 645.246094 961.570312 645 959.847656 645 C 958.128906 645 956.652344 645 954.929688 645 C 953.207031 645 951.730469 645.246094 950.011719 645.492188 C 948.289062 645.738281 946.8125 645.984375 945.335938 646.230469 C 943.859375 646.472656 942.140625 646.71875 940.664062 647.210938 C 939.1875 647.703125 937.464844 647.949219 935.988281 648.441406 C 934.515625 648.933594 933.039062 649.425781 931.316406 649.917969 C 929.839844 650.410156 928.363281 651.148438 926.890625 651.640625 C 925.414062 652.378906 923.9375 652.871094 922.460938 653.609375 C 920.984375 654.347656 919.507812 655.082031 918.28125 656.066406 C 917.050781 657.050781 915.574219 657.789062 914.097656 658.773438 C 912.867188 659.757812 911.390625 660.742188 910.164062 661.726562 C 908.933594 662.710938 907.703125 663.691406 906.472656 664.675781 C 905.242188 665.660156 904.011719 666.890625 903.027344 667.875 C 901.800781 669.105469 900.816406 670.089844 899.832031 671.316406 C 898.847656 672.546875 897.617188 673.777344 896.632812 675.007812 C 895.648438 676.238281 894.664062 677.46875 893.683594 678.945312 C 892.699219 680.171875 891.960938 681.648438 890.976562 682.878906 C 890.238281 684.355469 889.253906 685.585938 888.515625 687.0625 C 887.777344 688.535156 887.039062 690.011719 886.300781 691.488281 C 885.566406 692.964844 885.074219 694.441406 884.335938 695.914062 C 883.84375 697.390625 883.351562 698.867188 882.859375 700.589844 C 882.367188 702.066406 881.875 703.542969 881.628906 705.261719 C 881.136719 706.738281 880.890625 708.460938 880.644531 709.9375 C 880.398438 711.414062 880.152344 713.132812 879.90625 714.609375 C 879.660156 716.332031 879.660156 717.808594 879.414062 719.53125 C 879.414062 721.25 879.167969 722.726562 879.167969 724.449219 C 879.167969 726.171875 879.167969 727.648438 879.414062 729.367188 C 879.414062 731.089844 879.660156 732.566406 879.90625 734.289062 C 880.152344 736.011719 880.398438 737.484375 880.644531 738.960938 C 880.890625 740.4375 881.382812 742.160156 881.628906 743.636719 C 881.875 745.109375 882.367188 746.832031 882.859375 748.308594 C 883.351562 749.785156 883.84375 751.261719 884.335938 752.984375 C 884.828125 754.457031 885.566406 755.933594 886.300781 757.410156 C 887.039062 758.886719 887.777344 760.363281 888.515625 761.835938 C 889.253906 763.3125 889.992188 764.542969 890.976562 766.019531 C 891.714844 767.496094 892.699219 768.726562 893.683594 769.953125 C 894.664062 771.183594 895.648438 772.660156 896.632812 773.890625 C 897.617188 775.121094 898.601562 776.351562 899.832031 777.582031 C 900.816406 778.808594 902.046875 780.039062 903.273438 781.023438 C 904.503906 782.253906 905.488281 783.238281 906.71875 784.222656 C 907.949219 785.207031 909.179688 786.1875 910.410156 787.171875 C 911.636719 788.15625 912.867188 789.140625 914.34375 790.125 C 915.574219 791.109375 917.050781 791.847656 918.527344 792.832031 C 920 793.570312 921.230469 794.550781 922.707031 795.289062 C 924.183594 796.027344 925.660156 796.765625 927.132812 797.257812 C 928.609375 797.996094 930.085938 798.488281 931.5625 798.980469 C 933.039062 799.472656 934.515625 799.964844 936.234375 800.457031 C 937.710938 800.949219 939.433594 801.441406 940.910156 801.6875 C 942.386719 802.179688 944.105469 802.425781 945.582031 802.667969 C 947.058594 802.914062 948.78125 803.160156 950.257812 803.40625 C 951.976562 803.652344 953.453125 803.652344 955.175781 803.898438 C 956.898438 803.898438 958.375 803.898438 960.09375 803.898438 C 961.816406 803.898438 963.292969 803.898438 965.015625 803.652344 C 966.738281 803.652344 968.210938 803.40625 969.933594 803.160156 C 971.410156 802.914062 973.132812 802.667969 974.609375 802.425781 C 976.085938 802.179688 977.804688 801.6875 979.28125 801.441406 C 980.757812 800.949219 982.480469 800.703125 983.957031 800.210938 C 985.429688 799.71875 986.90625 799.226562 988.382812 798.488281 C 989.859375 797.996094 991.335938 797.257812 992.808594 796.519531 C 994.285156 795.78125 995.761719 795.042969 997.238281 794.308594 C 998.714844 793.570312 999.945312 792.832031 1001.417969 791.847656 C 1002.894531 791.109375 1004.125 790.125 1005.355469 789.140625 C 1053.566406 814.722656 1110.878906 817.921875 1161.796875 820.871094 C 1208.285156 823.578125 1252.070312 826.039062 1263.386719 845.960938 C 1270.273438 858.015625 1271.011719 886.546875 1235.34375 953.945312 C 1189.839844 1039.792969 1137.691406 1082.835938 1080.871094 1081.363281 C 989.367188 1079.394531 904.257812 967.71875 859.246094 872.773438 C 798.734375 745.355469 739.945312 753.71875 683.125 761.835938 C 653.855469 766.019531 623.597656 770.445312 588.425781 757.902344 C 533.078125 737.976562 508.480469 700.34375 497.660156 670.582031 L 500.117188 669.597656 C 501.59375 669.105469 502.824219 668.121094 504.054688 667.382812 C 505.285156 666.644531 506.515625 665.414062 507.496094 664.429688 C 508.480469 663.445312 509.464844 662.21875 510.449219 660.742188 C 511.1875 659.511719 511.925781 658.035156 512.417969 656.558594 C 512.910156 655.082031 513.402344 653.609375 513.648438 652.132812 C 513.894531 650.65625 514.140625 649.179688 514.140625 647.457031 C 514.140625 645.984375 513.894531 644.507812 513.648438 643.03125 C 513.402344 641.554688 512.910156 640.078125 512.171875 638.601562 L 501.59375 614.496094 C 509.464844 608.101562 516.351562 600.96875 522.503906 593.097656 C 528.652344 585.226562 533.816406 576.371094 537.753906 567.269531 C 557.921875 518.566406 531.847656 394.101562 500.117188 355.730469 C 485.605469 338.511719 463.714844 328.671875 436.164062 326.949219 C 434.441406 323.753906 432.230469 320.800781 429.523438 318.09375 C 426.816406 315.390625 424.113281 313.175781 420.914062 311.207031 C 417.714844 309.238281 414.273438 307.765625 410.582031 306.78125 C 406.894531 305.796875 403.203125 305.304688 399.511719 305.304688 C 397.792969 305.304688 396.070312 305.304688 394.347656 305.550781 C 392.625 305.796875 390.90625 306.042969 389.429688 306.535156 C 387.707031 307.027344 386.230469 307.519531 384.507812 308.011719 C 383.03125 308.5 381.3125 309.238281 379.835938 310.222656 C 378.359375 310.960938 376.882812 311.945312 375.40625 312.929688 C 373.933594 313.914062 372.703125 314.898438 371.472656 316.128906 C 370.242188 317.355469 369.011719 318.585938 368.027344 319.816406 C 367.042969 321.046875 365.816406 322.523438 365.078125 324 C 364.09375 325.472656 363.355469 326.949219 362.617188 328.425781 C 361.878906 329.902344 361.140625 331.625 360.648438 333.097656 C 360.15625 334.820312 359.664062 336.296875 359.171875 338.019531 C 358.925781 339.742188 358.679688 341.460938 358.433594 343.183594 C 358.191406 344.90625 358.191406 346.628906 358.433594 348.351562 C 358.433594 350.070312 358.679688 351.792969 358.925781 353.515625 C 359.171875 355.238281 359.664062 356.960938 360.15625 358.433594 C 360.648438 360.15625 361.140625 361.632812 361.878906 363.109375 C 363.601562 366.796875 365.570312 370.242188 368.273438 373.441406 C 370.980469 376.636719 373.933594 379.097656 377.375 381.3125 C 380.820312 383.523438 384.507812 385.246094 388.445312 386.230469 C 392.378906 387.214844 396.316406 387.953125 400.496094 387.707031 C 404.679688 387.707031 408.613281 386.96875 412.550781 385.738281 C 416.484375 384.507812 420.175781 382.539062 423.375 380.328125 C 426.816406 377.867188 429.769531 375.160156 432.230469 371.964844 C 434.6875 368.765625 436.65625 365.078125 438.132812 361.386719 C 453.628906 362.863281 465.191406 368.027344 472.816406 376.636719 L 473.550781 377.621094 C 484.867188 391.148438 497.167969 426.078125 504.546875 464.207031 C 511.679688 502.332031 512.417969 538.980469 506.023438 554.234375 C 494.460938 582.273438 462.730469 600.96875 452.890625 606.378906 C 442.066406 610.070312 406.894531 620.648438 378.605469 610.070312 C 363.109375 604.414062 337.035156 579.324219 313.667969 547.589844 C 290.300781 515.859375 273.328125 483.636719 271.113281 465.925781 C 269.636719 454.121094 273.574219 441.820312 283.414062 428.785156 C 284.886719 429.523438 286.609375 430.015625 288.332031 430.261719 C 290.054688 430.753906 291.53125 431 293.25 431.246094 C 294.972656 431.492188 296.695312 431.492188 298.417969 431.738281 C 300.140625 431.738281 301.859375 431.738281 303.582031 431.492188 C 305.304688 431.246094 307.027344 431 308.503906 430.507812 C 310.222656 430.015625 311.699219 429.523438 313.421875 429.03125 C 314.898438 428.539062 316.621094 427.800781 318.09375 427.0625 C 319.570312 426.324219 321.046875 425.339844 322.523438 424.355469 C 324 423.375 325.230469 422.390625 326.457031 421.160156 C 327.6875 419.929688 328.917969 418.945312 330.148438 417.46875 C 331.378906 416.238281 332.363281 414.765625 333.347656 413.535156 C 334.328125 412.058594 335.066406 410.582031 336.050781 409.105469 C 336.789062 407.628906 337.527344 406.15625 338.019531 404.433594 C 338.511719 402.957031 339.003906 401.234375 339.496094 399.511719 C 339.988281 397.792969 340.234375 396.316406 340.234375 394.59375 C 340.480469 392.871094 340.480469 391.148438 340.480469 389.429688 C 340.480469 387.707031 340.234375 385.984375 339.988281 384.261719 C 339.742188 382.539062 339.496094 380.820312 339.003906 379.34375 C 338.511719 377.621094 338.019531 376.144531 337.28125 374.421875 C 336.542969 372.949219 335.804688 371.226562 335.066406 369.75 C 334.328125 368.273438 333.347656 366.796875 332.363281 365.570312 C 331.378906 364.09375 330.394531 362.863281 329.164062 361.632812 C 327.933594 360.402344 326.703125 359.171875 325.472656 358.1875 C 324.246094 357.207031 322.769531 356.222656 321.292969 355.238281 C 319.816406 354.253906 318.339844 353.515625 316.867188 352.777344 C 315.390625 352.039062 313.667969 351.300781 312.191406 350.808594 C 310.46875 350.316406 308.992188 349.824219 307.273438 349.578125 C 305.550781 349.335938 303.828125 349.089844 302.351562 348.84375 C 300.628906 348.597656 298.910156 348.597656 297.1875 348.84375 C 295.464844 348.84375 293.742188 349.089844 292.023438 349.335938 C 290.300781 349.578125 288.578125 350.070312 287.101562 350.5625 C 285.378906 351.054688 283.90625 351.546875 282.429688 352.285156 C 279.96875 353.269531 277.753906 354.5 275.542969 355.976562 C 273.328125 357.453125 271.359375 359.171875 269.636719 360.894531 C 267.667969 362.863281 266.195312 364.832031 264.71875 366.796875 C 263.242188 368.765625 262.011719 371.226562 261.027344 373.6875 C 260.042969 376.144531 259.0625 378.605469 258.570312 381.066406 C 258.078125 383.523438 257.585938 386.230469 257.585938 388.691406 C 257.585938 391.394531 257.585938 393.855469 258.078125 396.5625 C 258.570312 399.019531 259.0625 401.726562 260.042969 404.1875 C 240.859375 426.078125 233.234375 448.953125 236.183594 471.09375 Z M 236.183594 471.09375 " fill-opacity="1" fill-rule="nonzero"/></svg>